<?xml version="1.0" encoding="UTF-8" standalone="no"?>
<svg
   xmlns:dc="http://purl.org/dc/elements/1.1/"
   xmlns:cc="http://creativecommons.org/ns#"
   xmlns:rdf="http://www.w3.org/1999/02/22-rdf-syntax-ns#"
   xmlns:svg="http://www.w3.org/2000/svg"
   xmlns="http://www.w3.org/2000/svg"
   xmlns:sodipodi="http://sodipodi.sourceforge.net/DTD/sodipodi-0.dtd"
   xmlns:inkscape="http://www.inkscape.org/namespaces/inkscape"
   style="width:308px;height:308px;"
   version="1.1"
   id="图形"
   x="0px"
   y="0px"
   width="1024px"
   height="1024px"
   viewBox="0 0 1024 1024"
   enable-background="new 0 0 1024 1024"
   xml:space="preserve"
   inkscape:version="0.91 r13725"
   sodipodi:docname="good-squird.svg"><metadata
     id="metadata5430"><rdf:RDF><cc:Work
         rdf:about=""><dc:format>image/svg+xml</dc:format><dc:type
           rdf:resource="http://purl.org/dc/dcmitype/StillImage" /><dc:title></dc:title></cc:Work></rdf:RDF></metadata><defs
     id="defs5428" /><sodipodi:namedview
     pagecolor="#ffffff"
     bordercolor="#666666"
     borderopacity="1"
     objecttolerance="10"
     gridtolerance="10"
     guidetolerance="10"
     inkscape:pageopacity="0"
     inkscape:pageshadow="2"
     inkscape:window-width="1366"
     inkscape:window-height="696"
     id="namedview5426"
     showgrid="false"
     inkscape:zoom="0.32593203"
     inkscape:cx="-294.51738"
     inkscape:cy="559.13997"
     inkscape:window-x="0"
     inkscape:window-y="49"
     inkscape:window-maximized="1"
     inkscape:current-layer="图形" /><path
     class="svgpath"
     data-index="path_4"
     d="M 507.06766,29.792622 C 239.65941,32.428589 24.249582,252.14142 26.885412,519.53583 29.521628,786.96944 249.22186,1002.3817 516.62893,999.74574 784.06254,997.10954 999.47363,777.40818 996.83738,509.97457 994.20152,242.58018 774.50242,27.156395 507.06766,29.792622 Z m 8.94618,907.553208 C 283.00522,939.64269 91.582477,751.95701 89.285323,518.91955 86.988587,285.9248 274.67415,94.488227 507.68274,92.191355 740.69137,89.89448 932.14072,277.59374 934.43746,510.58851 936.73462,743.62595 749.02245,935.04895 516.01384,937.34583 Z"
     id="path5424"
     inkscape:connector-curvature="0"
     style="fill:#000000" /><path
     inkscape:connector-curvature="0"
     id="path4380"
     d="m 429.13186,927.18062 c -1.54761,-4.56348 7.24348,-10.78367 41.08327,-29.06951 48.35696,-26.12817 108.1856,-68.95537 143.7732,-102.91723 19.68293,-18.78358 78.7093,-70.98147 108.30508,-95.77584 l 7.36531,-6.16934 -10.28626,-4.30146 c -21.14829,-8.83422 -94.35393,-2.73973 -151.44707,12.61161 -18.42285,4.95392 -44.57637,10.09087 -58.1142,11.4154 -17.43399,1.70764 -31.27842,5.15277 -47.45889,11.81569 -12.56418,5.17188 -30.34318,11.5644 -39.51112,14.20252 -9.16682,2.63732 -21.36476,7.19444 -27.10823,10.12358 -20.26359,10.3395 -34.32647,5.26973 -37.12261,-13.37746 -2.90266,-19.35812 -9.31302,-34.92657 -18.15539,-44.09766 -10.4438,-10.83092 -14.90618,-22.43567 -11.25301,-29.26098 1.5174,-2.83523 8.32774,-9.97585 15.13327,-15.86889 21.62165,-18.72223 90.98658,-95.70872 90.98658,-100.98475 0,-6.29077 -8.39002,-13.92867 -26.52304,-24.1517 -20.15307,-11.3585 -55.5683,-48.89329 -46.13454,-48.89329 4.89791,0 43.40565,15.16768 55.09618,21.70098 6.48888,3.62682 14.82594,10.19252 18.52553,14.59105 3.92596,4.66537 10.74922,8.74957 16.38479,9.80629 9.48542,1.77957 10.35637,1.08308 49.19522,-39.43071 21.74618,-22.6834 39.41822,-42.57205 39.27129,-44.19437 -0.1449,-1.62335 -9.88409,-21.79624 -21.63588,-44.82841 l -21.36789,-41.87439 -13.86021,-0.87505 c -9.77242,-0.6194 -16.76913,0.7254 -23.72859,4.54462 -5.43111,2.98192 -14.89572,6.9824 -21.03723,8.88968 -6.14169,1.90847 -12.35979,4.5736 -13.81873,5.92364 -1.46066,1.35032 -5.22716,2.49572 -8.37457,2.54513 -3.14836,0.0711 -26.36113,14.4837 -51.5837,32.07688 l -45.85979,31.98625 12.0033,11.08127 c 7.78137,7.18324 11.42347,12.5948 10.35402,15.38226 -2.3233,6.05367 -12.15148,5.34598 -17.82693,-1.28272 -5.76526,-6.73275 -17.74215,-7.22019 -34.24956,-1.39572 -6.52768,2.30276 -15.19986,4.18729 -19.27161,4.18729 -10.18143,0 -19.81202,-7.37469 -19.81202,-15.17168 0,-3.56371 -1.88433,-10.98997 -4.18736,-16.50218 -6.93365,-16.5944 -5.55937,-26.45604 4.45421,-31.96757 4.7531,-2.61499 13.2327,-8.33663 18.84362,-12.71421 5.61165,-4.37726 16.48365,-11.10683 24.16079,-14.95741 7.67637,-3.84732 17.0991,-9.78591 20.93785,-13.19668 7.11616,-6.32232 72.15707,-32.28896 94.91879,-37.89389 6.91033,-1.7028 18.8417,-5.44253 26.52059,-8.31083 7.67682,-2.86823 18.08915,-6.73666 23.1383,-8.5939 16.84715,-6.19499 16.73868,-11.27999 -0.8088,-38.36423 -36.9484,-57.02247 -44.95491,-92.26271 -28.9618,-127.46794 2.81234,-6.19391 5.14132,-15.89731 5.1748,-21.5624 0.0695,-5.6689 1.19148,-11.00412 2.57116,-11.85683 1.38294,-0.85369 6.61133,3.11666 11.62379,8.82727 11.79536,13.43502 41.69975,58.96894 41.69975,63.49632 0,1.91655 5.10892,9.29086 11.35089,16.38432 6.24328,7.0916 11.68987,16.077 12.10511,19.96533 0.41855,3.88906 3.47326,9.96303 6.79471,13.5014 3.32377,3.53594 6.04251,8.47312 6.04251,10.97062 0,2.49783 1.17367,5.26551 2.60671,6.15336 1.43535,0.88603 4.56345,8.3338 6.95124,16.54972 5.38191,18.5112 9.85935,22.5963 21.85497,19.93658 4.98607,-1.10475 25.39749,-3.1239 45.35836,-4.48738 19.96076,-1.36166 41.67416,-3.26261 48.25269,-4.22336 28.6475,-4.18329 43.52441,3.47591 85.03128,43.77703 21.38043,20.76077 21.308,25.66584 -0.62044,41.12827 -9.17849,6.47266 -26.51141,20.95571 -38.51975,32.18474 -14.31175,13.38599 -30.66831,25.14458 -47.49261,34.1453 -14.11336,7.55141 -25.67455,15.29951 -25.68722,17.2186 -0.0135,1.91993 -1.86975,3.48962 -4.12067,3.48962 -2.25045,0 -7.73233,3.56044 -12.18483,7.91185 -7.25724,7.09432 -7.73447,8.6099 -4.61469,14.65682 1.91496,3.70955 4.41959,11.14143 5.56747,16.5154 1.14653,5.37469 4.88572,18.56399 8.3075,29.31323 5.8565,18.39379 6.03643,21.35871 3.06619,50.5503 -2.64346,25.94702 -4.39925,32.88609 -10.76493,42.5061 -11.22379,16.96077 -18.71977,21.0602 -31.842,17.41698 -5.87009,-1.62977 -13.49628,-2.96971 -16.94686,-2.97801 -3.45195,-0.002 -12.51635,-4.49895 -20.1456,-9.98028 -15.14066,-10.87844 -45.36306,-26.32734 -51.50165,-26.32734 -5.47296,0 -44.4111,42.12051 -52.7757,57.09406 l -7.00846,12.53567 9.75575,1.83092 c 5.94689,1.11402 16.48069,0.0704 26.97806,-2.78406 17.78439,-4.76192 28.0656,-5.62943 103.76368,-8.7422 24.60602,-1.01268 57.20402,-4.26213 72.58358,-7.23813 38.88012,-7.51872 113.9922,-7.56367 130.87427,-0.0684 13.12405,5.818 16.96581,9.861 19.50858,20.51977 0.99243,4.14421 6.96978,11.68247 13.28812,16.75085 6.31845,5.06895 15.87669,13.04689 21.23783,17.72741 l 9.75301,8.51013 -2.41276,17.71756 c -1.73964,12.77322 -3.89626,18.5778 -7.72725,20.80253 -2.92308,1.69767 -9.58394,7.70776 -14.80283,13.35762 -12.27412,13.28443 -31.46119,25.44653 -52.4664,33.25709 -9.21283,3.42493 -23.03215,10.95811 -30.70922,16.74038 -7.67734,5.78156 -29.03324,18.93526 -47.45923,29.2298 -18.42561,10.29764 -40.29923,23.57656 -48.61125,29.51485 -8.78641,6.28051 -18.33561,10.79779 -22.81705,10.79779 -4.23695,0 -11.43956,3.14147 -16.0013,6.98076 -4.56079,3.83796 -9.58673,6.97754 -11.16655,6.97754 -1.57916,0 -12.17679,5.02146 -23.55347,11.15773 -12.41469,6.6951 -26.17096,11.80001 -34.41127,12.767 -7.55382,0.89113 -23.58574,6.09673 -35.62765,11.57166 -24.67474,11.21728 -58.58897,16.11859 -61.0646,8.82373 z M 552.67185,550.46228 c 3.28981,-6.14731 2.3796,-35.41421 -1.28421,-41.34489 -1.64252,-2.65757 -3.20834,-2.09493 -6.24618,2.24327 -2.22923,3.18346 -5.86683,5.78824 -8.08297,5.78824 -2.21456,0 -4.03177,2.01818 -4.03177,4.4842 0,2.46472 -3.87095,9.37591 -8.6076,15.35398 -7.37737,9.3177 -7.87752,10.88422 -3.48872,10.96956 2.81545,0.0695 8.26095,1.89517 12.09632,4.08931 9.83232,5.61786 16.05958,5.11654 19.64513,-1.58367 z M 656.92567,316.63425 c -3.94126,-0.504 -19.66161,1.0706 -34.93481,3.49009 -15.27246,2.41922 -33.05675,4.4861 -39.52078,4.59295 -14.20805,0.23836 -24.01848,3.51659 -19.28121,6.44449 1.79793,1.11067 5.31038,9.17921 7.80747,17.92971 2.49701,8.74996 7.04919,21.84177 10.11742,29.09021 l 5.57658,13.18171 38.70018,-36.91113 c 34.92864,-33.31177 38.0014,-36.99777 31.53515,-37.81803 z"
     style="fill:#000000" /></svg>