<svg version="1.1" xmlns="http://www.w3.org/2000/svg" viewBox="0 0 1090.0176159718112 604.0512820512804" width="1090.0176159718112" height="604.0512820512804"><symbol id="image-d08b98e6db6da6cce18af10349a02807aa46049c"></symbol>
  <g transform="translate(10 10) rotate(0 535.0088079859056 292.0256410256402)"><use href="#image-d08b98e6db6da6cce18af10349a02807aa46049c" width="1070" height="584" opacity="1"></use></g><g stroke-linecap="round"><g transform="translate(985.7661754637993 131.994887319177) rotate(0 -46.69371603489526 -14.349252945936769)"><path d="M0 0 C-4.94 -4.78, -14.05 -28.11, -29.62 -28.69 C-45.18 -29.26, -82.76 -7.66, -93.39 -3.46 M0 0 C-4.94 -4.78, -14.05 -28.11, -29.62 -28.69 C-45.18 -29.26, -82.76 -7.66, -93.39 -3.46" stroke="#ffffff" stroke-width="1" fill="none"></path></g><g transform="translate(985.7661754637993 131.994887319177) rotate(0 -46.69371603489526 -14.349252945936769)"><path d="M-72.37 -24.87 C-78.19 -18.94, -84 -13.02, -93.39 -3.46 M-72.37 -24.87 C-78.2 -18.92, -84.04 -12.98, -93.39 -3.46" stroke="#ffffff" stroke-width="1" fill="none"></path></g><g transform="translate(985.7661754637993 131.994887319177) rotate(0 -46.69371603489526 -14.349252945936769)"><path d="M-63.53 -6.35 C-71.79 -5.55, -80.05 -4.75, -93.39 -3.46 M-63.53 -6.35 C-71.81 -5.55, -80.1 -4.74, -93.39 -3.46" stroke="#ffffff" stroke-width="1" fill="none"></path></g></g><mask></mask><g transform="translate(964.2248972401621 155.53846153846098) rotate(33.46895351072829 40 9.199999999999818)"><text x="40" y="0" font-family="Helvetica, Segoe UI Emoji" font-size="16px" fill="#ffffff" text-anchor="middle" style="white-space: pre;" direction="ltr" dominant-baseline="text-before-edge">浮动编辑器</text></g><g stroke-linecap="round"><g transform="translate(1009.2248972401621 450) rotate(0 -105.38461538461524 -26.538461538461434)"><path d="M0 0 C-16.92 -2.56, -66.41 -6.54, -101.54 -15.38 C-136.67 -24.23, -192.56 -46.79, -210.77 -53.08 M0 0 C-16.92 -2.56, -66.41 -6.54, -101.54 -15.38 C-136.67 -24.23, -192.56 -46.79, -210.77 -53.08" stroke="#ffffff" stroke-width="1" fill="none"></path></g><g transform="translate(1009.2248972401621 450) rotate(0 -105.38461538461524 -26.538461538461434)"><path d="M-180.77 -52.92 C-186.8 -52.95, -192.83 -52.98, -210.77 -53.08 M-180.77 -52.92 C-191.29 -52.98, -201.81 -53.03, -210.77 -53.08" stroke="#ffffff" stroke-width="1" fill="none"></path></g><g transform="translate(1009.2248972401621 450) rotate(0 -105.38461538461524 -26.538461538461434)"><path d="M-187.89 -33.67 C-192.49 -37.58, -197.09 -41.48, -210.77 -53.08 M-187.89 -33.67 C-195.91 -40.48, -203.94 -47.28, -210.77 -53.08" stroke="#ffffff" stroke-width="1" fill="none"></path></g></g><mask></mask><g transform="translate(971.0710510863164 463.05384615384537) rotate(7.509533541940566 32 9.199999999999818)"><text x="32" y="0" font-family="Helvetica, Segoe UI Emoji" font-size="16px" fill="#ffffff" text-anchor="middle" style="white-space: pre;" direction="ltr" dominant-baseline="text-before-edge">双链引用</text></g><g stroke-linecap="round"><g transform="translate(653.1647353796052 515.2916400242175) rotate(0 -76.96991906972175 -93.46863859052382)"><path d="M0 0 C-12.34 -1.54, -48.38 23.2, -74.04 -9.22 C-99.69 -41.65, -140.62 -163.64, -153.94 -194.52 M0 0 C-12.34 -1.54, -48.38 23.2, -74.04 -9.22 C-99.69 -41.65, -140.62 -163.64, -153.94 -194.52" stroke="#ffffff" stroke-width="1" fill="none"></path></g><g transform="translate(653.1647353796052 515.2916400242175) rotate(0 -76.96991906972175 -93.46863859052382)"><path d="M-134.24 -171.9 C-139.74 -178.21, -145.24 -184.53, -153.94 -194.52 M-134.24 -171.9 C-142.11 -180.94, -149.98 -189.97, -153.94 -194.52" stroke="#ffffff" stroke-width="1" fill="none"></path></g><g transform="translate(653.1647353796052 515.2916400242175) rotate(0 -76.96991906972175 -93.46863859052382)"><path d="M-153.39 -164.53 C-153.55 -172.9, -153.7 -181.28, -153.94 -194.52 M-153.39 -164.53 C-153.61 -176.51, -153.83 -188.49, -153.94 -194.52" stroke="#ffffff" stroke-width="1" fill="none"></path></g></g><mask></mask><g transform="translate(664.6095126247774 528.4384615384615) rotate(13.532235706492216 80 9.199999999999818)"><text x="80" y="0" font-family="Helvetica, Segoe UI Emoji" font-size="16px" fill="#ffffff" text-anchor="middle" style="white-space: pre;" direction="ltr" dominant-baseline="text-before-edge">锁行编辑，源代码模式</text></g><g stroke-linecap="round"><g transform="translate(59.224897240162136 533.8461538461534) rotate(0 52.22701769794594 -39.397435897436026)"><path d="M0 0 C8.11 -4.98, 31.28 -16.76, 48.68 -29.9 C66.09 -43.03, 95.16 -70.65, 104.45 -78.79 M0 0 C8.11 -4.98, 31.28 -16.76, 48.68 -29.9 C66.09 -43.03, 95.16 -70.65, 104.45 -78.79" stroke="#ffffff" stroke-width="1" fill="none"></path></g><g transform="translate(59.224897240162136 533.8461538461534) rotate(0 52.22701769794594 -39.397435897436026)"><path d="M90.48 -52.25 C95.32 -61.44, 100.16 -70.64, 104.45 -78.79 M90.48 -52.25 C94.53 -59.93, 98.57 -67.61, 104.45 -78.79" stroke="#ffffff" stroke-width="1" fill="none"></path></g><g transform="translate(59.224897240162136 533.8461538461534) rotate(0 52.22701769794594 -39.397435897436026)"><path d="M76.69 -67.44 C86.31 -71.37, 95.92 -75.31, 104.45 -78.79 M76.69 -67.44 C84.72 -70.73, 92.76 -74.01, 104.45 -78.79" stroke="#ffffff" stroke-width="1" fill="none"></path></g></g><mask></mask><g transform="translate(72.60951262477738 531.5384615384619) rotate(328.19161027221963 32 9.199999999999818)"><text x="32" y="0" font-family="Helvetica, Segoe UI Emoji" font-size="16px" fill="#ffffff" text-anchor="middle" style="white-space: pre;" direction="ltr" dominant-baseline="text-before-edge">二次过滤</text></g><g stroke-linecap="round"><g transform="translate(196.1479741632388 546.1538461538457) rotate(0 40.3846153846157 -30.542486695281696)"><path d="M0 0 C9.23 -10.13, 41.92 -56.79, 55.38 -60.77 C68.85 -64.74, 76.54 -30, 80.77 -23.85 M0 0 C9.23 -10.13, 41.92 -56.79, 55.38 -60.77 C68.85 -64.74, 76.54 -30, 80.77 -23.85" stroke="#ffffff" stroke-width="1" fill="none"></path></g><g transform="translate(196.1479741632388 546.1538461538457) rotate(0 40.3846153846157 -30.542486695281696)"><path d="M65.55 -40.29 C68.81 -36.77, 72.06 -33.26, 80.77 -23.85 M65.55 -40.29 C70.71 -34.72, 75.87 -29.14, 80.77 -23.85" stroke="#ffffff" stroke-width="1" fill="none"></path></g><g transform="translate(196.1479741632388 546.1538461538457) rotate(0 40.3846153846157 -30.542486695281696)"><path d="M79.68 -46.22 C79.91 -41.44, 80.15 -36.66, 80.77 -23.85 M79.68 -46.22 C80.05 -38.64, 80.42 -31.05, 80.77 -23.85" stroke="#ffffff" stroke-width="1" fill="none"></path></g></g><mask></mask><g transform="translate(141.8402818555469 544.6153846153848) rotate(354.80087047864794 72 9.199999999999818)"><text x="72" y="0" font-family="Helvetica, Segoe UI Emoji" font-size="16px" fill="#ffffff" text-anchor="middle" style="white-space: pre;" direction="ltr" dominant-baseline="text-before-edge">主题切换，数据统计</text></g><g stroke-linecap="round"><g transform="translate(432.7346069308546 541.0597058996464) rotate(0 -62.524085614576734 -37.83754525751556)"><path d="M0 0 C-14.05 -4.54, -63.44 -14.6, -84.28 -27.21 C-105.12 -39.83, -118.25 -67.6, -125.05 -75.68 M0 0 C-14.05 -4.54, -63.44 -14.6, -84.28 -27.21 C-105.12 -39.83, -118.25 -67.6, -125.05 -75.68" stroke="#ffffff" stroke-width="1" fill="none"></path></g><g transform="translate(432.7346069308546 541.0597058996464) rotate(0 -62.524085614576734 -37.83754525751556)"><path d="M-100.77 -58.05 C-108.79 -63.87, -116.81 -69.69, -125.05 -75.68 M-100.77 -58.05 C-109.59 -64.45, -118.4 -70.85, -125.05 -75.68" stroke="#ffffff" stroke-width="1" fill="none"></path></g><g transform="translate(432.7346069308546 541.0597058996464) rotate(0 -62.524085614576734 -37.83754525751556)"><path d="M-117.78 -46.57 C-120.18 -56.18, -122.58 -65.79, -125.05 -75.68 M-117.78 -46.57 C-120.42 -57.14, -123.06 -67.71, -125.05 -75.68" stroke="#ffffff" stroke-width="1" fill="none"></path></g></g><mask></mask><g transform="translate(278.60951262477784 549.2307692307686) rotate(353.0403190955507 96 9.199999999999818)"><text x="96" y="0" font-family="Helvetica, Segoe UI Emoji" font-size="16px" fill="#ffffff" text-anchor="middle" style="white-space: pre;" direction="ltr" dominant-baseline="text-before-edge">文章分页，排序，显示模式</text></g><g stroke-linecap="round"><g transform="translate(999.9941280093931 546.1538461538466) rotate(0 -98.84615384615404 -23.46153846153811)"><path d="M0 0 C-20.26 -1.67, -88.59 -2.18, -121.54 -10 C-154.49 -17.82, -185 -40.77, -197.69 -46.92 M0 0 C-20.26 -1.67, -88.59 -2.18, -121.54 -10 C-154.49 -17.82, -185 -40.77, -197.69 -46.92" stroke="#ffffff" stroke-width="1" fill="none"></path></g><g transform="translate(999.9941280093931 546.1538461538466) rotate(0 -98.84615384615404 -23.46153846153811)"><path d="M-168.17 -41.6 C-178.39 -43.45, -188.61 -45.29, -197.69 -46.92 M-168.17 -41.6 C-179.41 -43.63, -190.66 -45.66, -197.69 -46.92" stroke="#ffffff" stroke-width="1" fill="none"></path></g><g transform="translate(999.9941280093931 546.1538461538466) rotate(0 -98.84615384615404 -23.46153846153811)"><path d="M-178.49 -23.87 C-185.14 -31.85, -191.79 -39.84, -197.69 -46.92 M-178.49 -23.87 C-185.81 -32.65, -193.12 -41.43, -197.69 -46.92" stroke="#ffffff" stroke-width="1" fill="none"></path></g></g><mask></mask><g transform="translate(842.1479741632393 550) rotate(0 104 9.199999999999818)"><text x="104" y="0" font-family="Helvetica, Segoe UI Emoji" font-size="16px" fill="#ffffff" text-anchor="middle" style="white-space: pre;" direction="ltr" dominant-baseline="text-before-edge">萤火虫模式，时间轴文章管理</text></g><g stroke-linecap="round"><g transform="translate(69.04249391043777 52.194470193616326) rotate(0 7.652666935596244 21.072562801055028)"><path d="M0 0 C-2.28 6.81, -18.65 35.6, -13.66 40.88 C-8.68 46.17, 22.65 33.24, 29.91 31.72 M0 0 C-2.28 6.81, -18.65 35.6, -13.66 40.88 C-8.68 46.17, 22.65 33.24, 29.91 31.72" stroke="#ffffff" stroke-width="1" fill="none"></path></g><g transform="translate(69.04249391043777 52.194470193616326) rotate(0 7.652666935596244 21.072562801055028)"><path d="M12.22 45.23 C16.73 41.79, 21.24 38.34, 29.91 31.72 M12.22 45.23 C16.21 42.18, 20.2 39.13, 29.91 31.72" stroke="#ffffff" stroke-width="1" fill="none"></path></g><g transform="translate(69.04249391043777 52.194470193616326) rotate(0 7.652666935596244 21.072562801055028)"><path d="M7.67 30.7 C13.34 30.96, 19.01 31.22, 29.91 31.72 M7.67 30.7 C12.69 30.93, 17.7 31.16, 29.91 31.72" stroke="#ffffff" stroke-width="1" fill="none"></path></g></g><mask></mask><g transform="translate(74.45566647093165 38.46153846153902) rotate(333.3996464370541 24 9.199999999999818)"><text x="24" y="0" font-family="Helvetica, Segoe UI Emoji" font-size="16px" fill="#ffffff" text-anchor="middle" style="white-space: pre;" direction="ltr" dominant-baseline="text-before-edge">主按钮</text></g><g stroke-linecap="round"><g transform="translate(422.526518895585 62.56225129008544) rotate(0 -32.03542621232668 74.10348973957298)"><path d="M0 0 C-8.37 11.11, -39.55 41.97, -50.22 66.67 C-60.9 91.37, -61.76 134.62, -64.07 148.21 M0 0 C-8.37 11.11, -39.55 41.97, -50.22 66.67 C-60.9 91.37, -61.76 134.62, -64.07 148.21" stroke="#ffffff" stroke-width="1" fill="none"></path></g><g transform="translate(422.526518895585 62.56225129008544) rotate(0 -32.03542621232668 74.10348973957298)"><path d="M-71.33 119.1 C-69.17 127.75, -67.01 136.4, -64.07 148.21 M-71.33 119.1 C-69.78 125.31, -68.23 131.52, -64.07 148.21" stroke="#ffffff" stroke-width="1" fill="none"></path></g><g transform="translate(422.526518895585 62.56225129008544) rotate(0 -32.03542621232668 74.10348973957298)"><path d="M-50.92 121.24 C-54.83 129.26, -58.74 137.27, -64.07 148.21 M-50.92 121.24 C-53.73 126.99, -56.53 132.75, -64.07 148.21" stroke="#ffffff" stroke-width="1" fill="none"></path></g></g><mask></mask><g transform="translate(428.9172049324702 54.615384615384755) rotate(355.8110115837054 48 9.199999999999818)"><text x="48" y="0" font-family="Helvetica, Segoe UI Emoji" font-size="16px" fill="#ffffff" text-anchor="middle" style="white-space: pre;" direction="ltr" dominant-baseline="text-before-edge">分类树过滤器</text></g><g stroke-linecap="round"><g transform="translate(348.36093578193504 48.467770842531536) rotate(0 -37.260326963194075 12.68919150181091)"><path d="M0 0 C-8.32 0.51, -37.49 -1.16, -49.91 3.07 C-62.33 7.3, -70.42 21.66, -74.52 25.38 M0 0 C-8.32 0.51, -37.49 -1.16, -49.91 3.07 C-62.33 7.3, -70.42 21.66, -74.52 25.38" stroke="#ffffff" stroke-width="1" fill="none"></path></g><g transform="translate(348.36093578193504 48.467770842531536) rotate(0 -37.260326963194075 12.68919150181091)"><path d="M-68.79 9.79 C-70.46 14.32, -72.12 18.86, -74.52 25.38 M-68.79 9.79 C-70.78 15.2, -72.77 20.61, -74.52 25.38" stroke="#ffffff" stroke-width="1" fill="none"></path></g><g transform="translate(348.36093578193504 48.467770842531536) rotate(0 -37.260326963194075 12.68919150181091)"><path d="M-60.11 17.12 C-64.3 19.52, -68.5 21.93, -74.52 25.38 M-60.11 17.12 C-65.11 19.98, -70.11 22.85, -74.52 25.38" stroke="#ffffff" stroke-width="1" fill="none"></path></g></g><mask></mask><g transform="translate(355.6864357017007 36.153846153845734) rotate(352.9727950157954 56 9.199999999999818)"><text x="56" y="0" font-family="Helvetica, Segoe UI Emoji" font-size="16px" fill="#ffffff" text-anchor="middle" style="white-space: pre;" direction="ltr" dominant-baseline="text-before-edge">页签组，固定组</text></g><g stroke-linecap="round"><g transform="translate(705.4379688816794 51.88245607745466) rotate(0 -35.79884351306623 28.78682837507813)"><path d="M0 0 C-8.6 0.2, -39.66 -9, -51.6 1.19 C-63.53 11.39, -68.26 51.19, -71.6 61.19 M0 0 C-8.6 0.2, -39.66 -9, -51.6 1.19 C-63.53 11.39, -68.26 51.19, -71.6 61.19" stroke="#ffffff" stroke-width="1" fill="none"></path></g><g transform="translate(705.4379688816794 51.88245607745466) rotate(0 -35.79884351306623 28.78682837507813)"><path d="M-75.31 31.42 C-74.3 39.54, -73.29 47.65, -71.6 61.19 M-75.31 31.42 C-74.26 39.85, -73.21 48.27, -71.6 61.19" stroke="#ffffff" stroke-width="1" fill="none"></path></g><g transform="translate(705.4379688816794 51.88245607745466) rotate(0 -35.79884351306623 28.78682837507813)"><path d="M-55.31 36 C-59.75 42.87, -64.19 49.73, -71.6 61.19 M-55.31 36 C-59.91 43.13, -64.52 50.26, -71.6 61.19" stroke="#ffffff" stroke-width="1" fill="none"></path></g></g><mask></mask><g transform="translate(713.071051086316 44.615384615384755) rotate(355.2284423408908 80 9.199999999999818)"><text x="80" y="0" font-family="Helvetica, Segoe UI Emoji" font-size="16px" fill="#ffffff" text-anchor="middle" style="white-space: pre;" direction="ltr" dominant-baseline="text-before-edge">封面，标签，文章头像</text></g><g stroke-linecap="round"><g transform="translate(86.01640176521641 282.8397691715545) rotate(0 28.14270927593452 -32.18911535500774)"><path d="M0 0 C2.46 -7.01, 5.37 -31.34, 14.75 -42.07 C24.13 -52.8, 49.36 -60.66, 56.29 -64.38 M0 0 C2.46 -7.01, 5.37 -31.34, 14.75 -42.07 C24.13 -52.8, 49.36 -60.66, 56.29 -64.38" stroke="#ffffff" stroke-width="1" fill="none"></path></g><g transform="translate(86.01640176521641 282.8397691715545) rotate(0 28.14270927593452 -32.18911535500774)"><path d="M39.15 -48.19 C43.71 -52.5, 48.27 -56.8, 56.29 -64.38 M39.15 -48.19 C45.95 -54.61, 52.75 -61.04, 56.29 -64.38" stroke="#ffffff" stroke-width="1" fill="none"></path></g><g transform="translate(86.01640176521641 282.8397691715545) rotate(0 28.14270927593452 -32.18911535500774)"><path d="M32.75 -62.99 C39.01 -63.36, 45.27 -63.73, 56.29 -64.38 M32.75 -62.99 C42.09 -63.54, 51.43 -64.09, 56.29 -64.38" stroke="#ffffff" stroke-width="1" fill="none"></path></g></g><mask></mask><g transform="translate(35.68643570170116 312.3076923076924) rotate(304.4598615803855 32 9.199999999999818)"><text x="32" y="0" font-family="Helvetica, Segoe UI Emoji" font-size="16px" fill="#ffffff" text-anchor="middle" style="white-space: pre;" direction="ltr" dominant-baseline="text-before-edge">文章列表</text></g><g stroke-linecap="round"><g transform="translate(66.68231780973701 176.39054598751773) rotate(0 47.80975125367422 -35.502965301450786)"><path d="M0 0 C2.86 -7.09, 1.22 -30.71, 17.16 -42.54 C33.09 -54.38, 82.54 -66.26, 95.62 -71.01 M0 0 C2.86 -7.09, 1.22 -30.71, 17.16 -42.54 C33.09 -54.38, 82.54 -66.26, 95.62 -71.01" stroke="#ffffff" stroke-width="1" fill="none"></path></g><g transform="translate(66.68231780973701 176.39054598751773) rotate(0 47.80975125367422 -35.502965301450786)"><path d="M71.64 -52.97 C79 -58.5, 86.35 -64.04, 95.62 -71.01 M71.64 -52.97 C79.24 -58.69, 86.84 -64.4, 95.62 -71.01" stroke="#ffffff" stroke-width="1" fill="none"></path></g><g transform="translate(66.68231780973701 176.39054598751773) rotate(0 47.80975125367422 -35.502965301450786)"><path d="M65.66 -72.6 C74.85 -72.11, 84.04 -71.62, 95.62 -71.01 M65.66 -72.6 C75.15 -72.1, 84.65 -71.59, 95.62 -71.01" stroke="#ffffff" stroke-width="1" fill="none"></path></g></g><mask></mask><g transform="translate(26.147974163239724 202.30769230769238) rotate(311.4909734113827 40 9.199999999999818)"><text x="40" y="0" font-family="Helvetica, Segoe UI Emoji" font-size="16px" fill="#ffffff" text-anchor="middle" style="white-space: pre;" direction="ltr" dominant-baseline="text-before-edge">置顶过滤器</text></g></svg>
