<svg version="1.1" xmlns="http://www.w3.org/2000/svg" viewBox="0 0 1086.2595419847316 601.9999999999991" width="1086.2595419847316" height="601.9999999999991"><symbol id="image-ef22f45d39fc834b31a78ef99149ad8eb64580a2"></symbol>

  <g transform="translate(10 10) rotate(0 533.1297709923658 290.99999999999955)"><use href="#image-ef22f45d39fc834b31a78ef99149ad8eb64580a2" width="1066" height="582" opacity="1"></use></g><g stroke-linecap="round"><g transform="translate(475.6496113187627 31.24330554421431) rotate(0 -22.79528556492687 20.631669484150734)"><path d="M0 0 C-7.45 0.43, -39.76 -4.54, -44.71 2.56 C-49.66 9.65, -32.21 35.89, -29.71 42.56 M0 0 C-7.45 0.43, -39.76 -4.54, -44.71 2.56 C-49.66 9.65, -32.21 35.89, -29.71 42.56" stroke="#1e1e1e" stroke-width="1" fill="none"></path></g><g transform="translate(475.6496113187627 31.24330554421431) rotate(0 -22.79528556492687 20.631669484150734)"><path d="M-45.4 28.06 C-39.23 33.77, -33.05 39.47, -29.71 42.56 M-45.4 28.06 C-40.73 32.38, -36.06 36.69, -29.71 42.56" stroke="#1e1e1e" stroke-width="1" fill="none"></path></g><g transform="translate(475.6496113187627 31.24330554421431) rotate(0 -22.79528556492687 20.631669484150734)"><path d="M-32.41 21.37 C-31.35 29.71, -30.29 38.05, -29.71 42.56 M-32.41 21.37 C-31.61 27.67, -30.81 33.98, -29.71 42.56" stroke="#1e1e1e" stroke-width="1" fill="none"></path></g></g><mask></mask><g transform="translate(484.9389312977087 27.799999999999272) rotate(357.6140559696112 48 9.199999999999818)"><text x="48" y="0" font-family="Helvetica, Segoe UI Emoji" font-size="16px" fill="#1e1e1e" text-anchor="middle" style="white-space: pre;" direction="ltr" dominant-baseline="text-before-edge">页签，页签组</text></g><g stroke-linecap="round"><g transform="translate(306.1450729972462 38.62036643628744) rotate(0 -7.756930814698535 26.089816781855916)"><path d="M0 0 C-2.53 2.7, -13.51 7.48, -15.21 16.18 C-16.91 24.88, -11.04 46.18, -10.21 52.18 M0 0 C-2.53 2.7, -13.51 7.48, -15.21 16.18 C-16.91 24.88, -11.04 46.18, -10.21 52.18" stroke="#1e1e1e" stroke-width="1" fill="none"></path></g><g transform="translate(306.1450729972462 38.62036643628744) rotate(0 -7.756930814698535 26.089816781855916)"><path d="M-19.67 36.67 C-17.13 40.84, -14.58 45.01, -10.21 52.18 M-19.67 36.67 C-17.13 40.83, -14.59 44.99, -10.21 52.18" stroke="#1e1e1e" stroke-width="1" fill="none"></path></g><g transform="translate(306.1450729972462 38.62036643628744) rotate(0 -7.756930814698535 26.089816781855916)"><path d="M-7.49 34.21 C-8.22 39.04, -8.95 43.87, -10.21 52.18 M-7.49 34.21 C-8.22 39.03, -8.95 43.85, -10.21 52.18" stroke="#1e1e1e" stroke-width="1" fill="none"></path></g></g><mask></mask><g transform="translate(311.9389312977087 25.799999999999272) rotate(351.3843518158359 24 9.199999999999818)"><text x="24" y="0" font-family="Helvetica, Segoe UI Emoji" font-size="16px" fill="#1e1e1e" text-anchor="middle" style="white-space: pre;" direction="ltr" dominant-baseline="text-before-edge">过滤器</text></g><g stroke-linecap="round"><g transform="translate(78.13158888345924 135.23356825694282) rotate(0 8.314286309956515 -16.216784128471772)"><path d="M0 0 C-1.2 -3.74, -11.33 -17.03, -7.19 -22.43 C-3.06 -27.84, 19.47 -30.77, 24.81 -32.43 M0 0 C-1.2 -3.74, -11.33 -17.03, -7.19 -22.43 C-3.06 -27.84, 19.47 -30.77, 24.81 -32.43" stroke="#1e1e1e" stroke-width="1" fill="none"></path></g><g transform="translate(78.13158888345924 135.23356825694282) rotate(0 8.314286309956515 -16.216784128471772)"><path d="M10.66 -23.44 C14.2 -25.69, 17.73 -27.93, 24.81 -32.43 M10.66 -23.44 C16.1 -26.9, 21.54 -30.36, 24.81 -32.43" stroke="#1e1e1e" stroke-width="1" fill="none"></path></g><g transform="translate(78.13158888345924 135.23356825694282) rotate(0 8.314286309956515 -16.216784128471772)"><path d="M8.19 -34.64 C12.34 -34.08, 16.5 -33.53, 24.81 -32.43 M8.19 -34.64 C14.58 -33.79, 20.97 -32.94, 24.81 -32.43" stroke="#1e1e1e" stroke-width="1" fill="none"></path></g></g><mask></mask><g transform="translate(23.938931297708677 141.79999999999927) rotate(345.40342447450564 48 18.40000000000009)"><text x="48" y="0" font-family="Helvetica, Segoe UI Emoji" font-size="16px" fill="#1e1e1e" text-anchor="middle" style="white-space: pre;" direction="ltr" dominant-baseline="text-before-edge">去中心化的</text><text x="48" y="18.4" font-family="Helvetica, Segoe UI Emoji" font-size="16px" fill="#1e1e1e" text-anchor="middle" style="white-space: pre;" direction="ltr" dominant-baseline="text-before-edge">数据同步服务</text></g><g stroke-linecap="round"><g transform="translate(75.95971307241143 281.1080082020544) rotate(0 34.48960911264862 23.201062188893957)"><path d="M0 0 C4.83 8.78, 17.48 53.74, 28.98 52.69 C40.48 51.64, 62.31 3.53, 68.98 -6.31 M0 0 C4.83 8.78, 17.48 53.74, 28.98 52.69 C40.48 51.64, 62.31 3.53, 68.98 -6.31" stroke="#1e1e1e" stroke-width="1" fill="none"></path></g><g transform="translate(75.95971307241143 281.1080082020544) rotate(0 34.48960911264862 23.201062188893957)"><path d="M64.22 23.31 C65.27 16.77, 66.32 10.24, 68.98 -6.31 M64.22 23.31 C65.25 16.91, 66.28 10.5, 68.98 -6.31" stroke="#1e1e1e" stroke-width="1" fill="none"></path></g><g transform="translate(75.95971307241143 281.1080082020544) rotate(0 34.48960911264862 23.201062188893957)"><path d="M46.29 13.32 C51.3 8.99, 56.31 4.66, 68.98 -6.31 M46.29 13.32 C51.2 9.08, 56.11 4.83, 68.98 -6.31" stroke="#1e1e1e" stroke-width="1" fill="none"></path></g></g><mask></mask><g transform="translate(24.938931297708677 259.7999999999993) rotate(340.3461759419467 32 9.199999999999818)"><text x="32" y="0" font-family="Helvetica, Segoe UI Emoji" font-size="16px" fill="#1e1e1e" text-anchor="middle" style="white-space: pre;" direction="ltr" dominant-baseline="text-before-edge">文章列表</text></g><g stroke-linecap="round"><g transform="translate(104.46023033799474 29.48077439607914) rotate(0 -17.327151444018455 20.81311575480231)"><path d="M0 0 C-5.92 0.39, -35.67 -4.87, -35.52 2.32 C-35.38 9.51, -5.2 36.32, 0.87 43.12 M0 0 C-5.92 0.39, -35.67 -4.87, -35.52 2.32 C-35.38 9.51, -5.2 36.32, 0.87 43.12" stroke="#1e1e1e" stroke-width="1" fill="none"></path></g><g transform="translate(104.46023033799474 29.48077439607914) rotate(0 -17.327151444018455 20.81311575480231)"><path d="M-23.94 31.63 C-15.54 35.52, -7.15 39.4, 0.87 43.12 M-23.94 31.63 C-15.32 35.62, -6.7 39.61, 0.87 43.12" stroke="#1e1e1e" stroke-width="1" fill="none"></path></g><g transform="translate(104.46023033799474 29.48077439607914) rotate(0 -17.327151444018455 20.81311575480231)"><path d="M-10.75 18.38 C-6.82 26.75, -2.89 35.12, 0.87 43.12 M-10.75 18.38 C-6.71 26.97, -2.68 35.57, 0.87 43.12" stroke="#1e1e1e" stroke-width="1" fill="none"></path></g></g><mask></mask><g transform="translate(113.93893129770868 24.799999999999272) rotate(344.47588900324564 40 18.40000000000009)"><text x="40" y="0" font-family="Helvetica, Segoe UI Emoji" font-size="16px" fill="#1e1e1e" text-anchor="middle" style="white-space: pre;" direction="ltr" dominant-baseline="text-before-edge">主按钮，</text><text x="40" y="18.4" font-family="Helvetica, Segoe UI Emoji" font-size="16px" fill="#1e1e1e" text-anchor="middle" style="white-space: pre;" direction="ltr" dominant-baseline="text-before-edge">个性化头像</text></g><g stroke-linecap="round"><g transform="translate(122.12783856947726 550.8495650237055) rotate(0 20.905546364115708 -17.024782511853118)"><path d="M0 0 C6.97 -5.67, 34.84 -28.37, 41.81 -34.05 M0 0 C6.97 -5.67, 34.84 -28.37, 41.81 -34.05" stroke="#1e1e1e" stroke-width="1" fill="none"></path></g><g transform="translate(122.12783856947726 550.8495650237055) rotate(0 20.905546364115708 -17.024782511853118)"><path d="M27.99 -10.9 C32.75 -18.87, 37.5 -26.83, 41.81 -34.05 M27.99 -10.9 C32.55 -18.54, 37.11 -26.17, 41.81 -34.05" stroke="#1e1e1e" stroke-width="1" fill="none"></path></g><g transform="translate(122.12783856947726 550.8495650237055) rotate(0 20.905546364115708 -17.024782511853118)"><path d="M16.34 -25.2 C25.11 -28.25, 33.87 -31.29, 41.81 -34.05 M16.34 -25.2 C24.74 -28.12, 33.14 -31.04, 41.81 -34.05" stroke="#1e1e1e" stroke-width="1" fill="none"></path></g></g><mask></mask><g transform="translate(76.93893129770868 559.7999999999993) rotate(356.0548137709625 32 9.199999999999818)"><text x="32" y="0" font-family="Helvetica, Segoe UI Emoji" font-size="16px" fill="#1e1e1e" text-anchor="middle" style="white-space: pre;" direction="ltr" dominant-baseline="text-before-edge">二次过滤</text></g><g stroke-linecap="round"><g transform="translate(509.90487510560524 540.6630672470365) rotate(0 31.517028096051718 -63.43153362351859)"><path d="M0 0 C4.84 -2.48, 18.53 6.28, 29.03 -14.86 C39.54 -36.01, 57.37 -108.2, 63.03 -126.86 M0 0 C4.84 -2.48, 18.53 6.28, 29.03 -14.86 C39.54 -36.01, 57.37 -108.2, 63.03 -126.86" stroke="#1e1e1e" stroke-width="1" fill="none"></path></g><g transform="translate(509.90487510560524 540.6630672470365) rotate(0 31.517028096051718 -63.43153362351859)"><path d="M65.41 -96.96 C64.49 -108.58, 63.56 -120.19, 63.03 -126.86 M65.41 -96.96 C64.53 -108.03, 63.65 -119.09, 63.03 -126.86" stroke="#1e1e1e" stroke-width="1" fill="none"></path></g><g transform="translate(509.90487510560524 540.6630672470365) rotate(0 31.517028096051718 -63.43153362351859)"><path d="M45.63 -102.42 C52.39 -111.92, 59.15 -121.41, 63.03 -126.86 M45.63 -102.42 C52.07 -111.47, 58.51 -120.51, 63.03 -126.86" stroke="#1e1e1e" stroke-width="1" fill="none"></path></g></g><mask></mask><g transform="translate(410.9389312977087 554.7999999999993) rotate(355.60129464500443 72 9.199999999999818)"><text x="72" y="0" font-family="Helvetica, Segoe UI Emoji" font-size="16px" fill="#1e1e1e" text-anchor="middle" style="white-space: pre;" direction="ltr" dominant-baseline="text-before-edge">即时渲染的输入体验</text></g><g stroke-linecap="round"><g transform="translate(978.300112496815 375.8133850028762) rotate(0 -3.86891273203355 -17.873664960063707)"><path d="M0 0 C-1.73 -0.34, -10.8 4.16, -10.36 -2.01 C-9.92 -8.18, 0.47 -31.18, 2.64 -37.01 M0 0 C-1.73 -0.34, -10.8 4.16, -10.36 -2.01 C-9.92 -8.18, 0.47 -31.18, 2.64 -37.01" stroke="#1e1e1e" stroke-width="1" fill="none"></path></g><g transform="translate(978.300112496815 375.8133850028762) rotate(0 -3.86891273203355 -17.873664960063707)"><path d="M1.88 -18.36 C2.17 -25.33, 2.45 -32.29, 2.64 -37.01 M1.88 -18.36 C2.08 -23.24, 2.28 -28.11, 2.64 -37.01" stroke="#1e1e1e" stroke-width="1" fill="none"></path></g><g transform="translate(978.300112496815 375.8133850028762) rotate(0 -3.86891273203355 -17.873664960063707)"><path d="M-9.93 -23.21 C-5.24 -28.36, -0.54 -33.52, 2.64 -37.01 M-9.93 -23.21 C-6.64 -26.82, -3.36 -30.43, 2.64 -37.01" stroke="#1e1e1e" stroke-width="1" fill="none"></path></g></g><mask></mask><g transform="translate(942.9389312977087 390.7999999999993) rotate(8.7461622625552 40 9.199999999999818)"><text x="40" y="0" font-family="Helvetica, Segoe UI Emoji" font-size="16px" fill="#1e1e1e" text-anchor="middle" style="white-space: pre;" direction="ltr" dominant-baseline="text-before-edge">打开预览区</text></g><g stroke-linecap="round"><g transform="translate(791.4464634472956 568.7536485627716) rotate(0 -46.253766074793475 -11.997524469399195)"><path d="M0 0 C-6.92 0.01, -26.09 4.37, -41.51 0.05 C-56.93 -4.28, -84.01 -21.62, -92.51 -25.95 M0 0 C-6.92 0.01, -26.09 4.37, -41.51 0.05 C-56.93 -4.28, -84.01 -21.62, -92.51 -25.95" stroke="#1e1e1e" stroke-width="1" fill="none"></path></g><g transform="translate(791.4464634472956 568.7536485627716) rotate(0 -46.253766074793475 -11.997524469399195)"><path d="M-64.28 -21.22 C-70.08 -22.19, -75.88 -23.17, -92.51 -25.95 M-64.28 -21.22 C-74.16 -22.88, -84.04 -24.53, -92.51 -25.95" stroke="#1e1e1e" stroke-width="1" fill="none"></path></g><g transform="translate(791.4464634472956 568.7536485627716) rotate(0 -46.253766074793475 -11.997524469399195)"><path d="M-73.93 -4.18 C-77.75 -8.66, -81.57 -13.13, -92.51 -25.95 M-73.93 -4.18 C-80.43 -11.8, -86.93 -19.42, -92.51 -25.95" stroke="#1e1e1e" stroke-width="1" fill="none"></path></g></g><mask></mask><g transform="translate(798.9389312977087 558.7999999999993) rotate(6.51980175165698 80 9.199999999999818)"><text x="80" y="0" font-family="Helvetica, Segoe UI Emoji" font-size="16px" fill="#1e1e1e" text-anchor="middle" style="white-space: pre;" direction="ltr" dominant-baseline="text-before-edge">大纲，双链，待办清单</text></g><g stroke-linecap="round"><g transform="translate(870.3306746045173 51.841810790832824) rotate(0 -43.507879592224526 41.479094604583224)"><path d="M0 0 C-1.23 8.33, 7.34 36.13, -7.39 49.96 C-22.12 63.78, -74.89 77.46, -88.39 82.96 M0 0 C-1.23 8.33, 7.34 36.13, -7.39 49.96 C-22.12 63.78, -74.89 77.46, -88.39 82.96" stroke="#1e1e1e" stroke-width="1" fill="none"></path></g><g transform="translate(870.3306746045173 51.841810790832824) rotate(0 -43.507879592224526 41.479094604583224)"><path d="M-64.93 64.26 C-71.57 69.55, -78.21 74.84, -88.39 82.96 M-64.93 64.26 C-69.98 68.28, -75.03 72.31, -88.39 82.96" stroke="#1e1e1e" stroke-width="1" fill="none"></path></g><g transform="translate(870.3306746045173 51.841810790832824) rotate(0 -43.507879592224526 41.479094604583224)"><path d="M-58.4 83.71 C-66.89 83.5, -75.38 83.28, -88.39 82.96 M-58.4 83.71 C-64.86 83.55, -71.31 83.39, -88.39 82.96" stroke="#1e1e1e" stroke-width="1" fill="none"></path></g></g><mask></mask><g transform="translate(789.9389312977087 29.799999999999272) rotate(8.7461622625552 64 9.199999999999818)"><text x="64" y="0" font-family="Helvetica, Segoe UI Emoji" font-size="16px" fill="#1e1e1e" text-anchor="middle" style="white-space: pre;" direction="ltr" dominant-baseline="text-before-edge">丰富的元数据支持</text></g></svg>
