<?xml version="1.0" encoding="UTF-8" standalone="no"?>
<!-- Created with Inkscape (http://www.inkscape.org/) -->

<svg
   xmlns:dc="http://purl.org/dc/elements/1.1/"
   xmlns:cc="http://creativecommons.org/ns#"
   xmlns:rdf="http://www.w3.org/1999/02/22-rdf-syntax-ns#"
   xmlns:svg="http://www.w3.org/2000/svg"
   xmlns="http://www.w3.org/2000/svg"
   xmlns:sodipodi="http://sodipodi.sourceforge.net/DTD/sodipodi-0.dtd"
   xmlns:inkscape="http://www.inkscape.org/namespaces/inkscape"
   id="svg4302"
   version="1.1"
   inkscape:version="0.91 r13725"
   width="370"
   height="370"
   viewBox="0 0 370 370"
   sodipodi:docname="goodaa.svg">
  <metadata
     id="metadata4308">
    <rdf:RDF>
      <cc:Work
         rdf:about="">
        <dc:format>image/svg+xml</dc:format>
        <dc:type
           rdf:resource="http://purl.org/dc/dcmitype/StillImage" />
        <dc:title></dc:title>
      </cc:Work>
    </rdf:RDF>
  </metadata>
  <defs
     id="defs4306" />
  <sodipodi:namedview
     pagecolor="#ffffff"
     bordercolor="#666666"
     borderopacity="1"
     objecttolerance="10"
     gridtolerance="10"
     guidetolerance="10"
     inkscape:pageopacity="0"
     inkscape:pageshadow="2"
     inkscape:window-width="1366"
     inkscape:window-height="696"
     id="namedview4304"
     showgrid="false"
     inkscape:zoom="0.90968332"
     inkscape:cx="166.34897"
     inkscape:cy="180.81554"
     inkscape:window-x="0"
     inkscape:window-y="49"
     inkscape:window-maximized="1"
     inkscape:current-layer="svg4302" />
  <path
     style="fill:#000000"
     d="m 135.94539,368.59346 c -0.68783,-2.02821 3.21932,-4.79274 18.25923,-12.91978 21.49198,-11.61252 48.08249,-30.64683 63.8992,-45.74099 8.74797,-8.34826 34.98191,-31.54732 48.13559,-42.56704 l 3.27347,-2.74193 -4.57167,-1.91176 c -9.39924,-3.92632 -41.93508,-1.21766 -67.30981,5.60516 -8.18793,2.20174 -19.81172,4.48483 -25.82853,5.07351 -7.74844,0.75895 -13.90152,2.29012 -21.09284,5.25142 -5.58408,2.29861 -13.48586,5.13973 -17.5605,6.31223 -4.07414,1.17214 -9.49545,3.19753 -12.0481,4.49937 -9.00604,4.59533 -15.25621,2.3421 -16.49894,-5.94554 -1.29007,-8.60361 -4.13912,-15.52292 -8.069056,-19.59896 -4.641691,-4.81374 -6.624966,-9.97141 -5.001337,-13.00488 0.674395,-1.2601 3.701213,-4.43371 6.725895,-7.05284 9.609618,-8.32099 40.438478,-42.53721 40.438478,-44.88211 0,-2.7959 -3.7289,-6.19052 -11.78802,-10.73409 -8.95692,-5.04822 -24.69702,-21.73035 -20.50424,-21.73035 2.17685,0 19.2914,6.74119 24.48719,9.64488 2.88395,1.61192 6.58931,4.53001 8.23357,6.48491 1.74487,2.0735 4.77743,3.8887 7.28213,4.35835 4.21574,0.79092 4.60283,0.48137 21.86454,-17.52476 9.66497,-10.08151 17.51921,-18.92091 17.45391,-19.64194 -0.0644,-0.72149 -4.39293,-9.68722 -9.61595,-19.92374 l -9.49684,-18.61084 -6.16009,-0.38891 c -4.3433,-0.27529 -7.45295,0.3224 -10.54604,2.01983 -2.41383,1.3253 -6.62032,3.10329 -9.34988,3.95097 -2.72964,0.84821 -5.49324,2.03271 -6.14166,2.63273 -0.64918,0.60014 -2.32318,1.10921 -3.72203,1.13117 -1.39927,0.0316 -11.71606,6.4372 -22.92609,14.25639 l -20.382131,14.21611 5.334805,4.92501 c 3.458391,3.19255 5.077104,5.59769 4.601788,6.83656 -1.032579,2.69052 -5.400657,2.37599 -7.923076,-0.5701 -2.562341,-2.99233 -7.885398,-3.20897 -15.222037,-0.62032 -2.901185,1.02345 -6.755481,1.86102 -8.565157,1.86102 -4.525076,0 -8.805337,-3.27764 -8.805337,-6.74297 0,-1.58387 -0.837484,-4.88443 -1.861049,-7.3343 -3.081622,-7.37529 -2.470836,-11.75824 1.97965,-14.20781 2.112488,-1.16222 5.881198,-3.70517 8.374934,-5.65076 2.494073,-1.94545 7.326071,-4.93637 10.738136,-6.64774 3.411717,-1.70992 7.5996,-4.34929 9.305711,-5.86519 3.162739,-2.80992 32.069803,-14.35065 42.186123,-16.841726 3.07126,-0.756808 8.37409,-2.418907 11.78693,-3.6937 3.41192,-1.274775 8.03962,-2.994073 10.28369,-3.819518 7.48762,-2.753327 7.43941,-5.013329 -0.35947,-17.050771 -16.42151,-25.343312 -19.97996,-41.005645 -12.87191,-56.652418 1.24993,-2.752846 2.28503,-7.0654629 2.29991,-9.5832911 0.0309,-2.5195101 0.52955,-4.890713 1.14274,-5.2696931 0.61464,-0.3794207 2.93837,1.3851742 5.16613,3.9232284 5.24238,5.9711198 18.53322,26.2084228 18.53322,28.2205908 0,0.851799 2.27063,4.12927 5.04484,7.28192 2.77479,3.151813 5.1955,7.145327 5.38005,8.873477 0.18602,1.728468 1.54367,4.428007 3.01987,6.000618 1.47723,1.571531 2.68556,3.765829 2.68556,4.875834 0,1.110146 0.52163,2.340224 1.15854,2.734824 0.63793,0.393798 2.0282,3.70391 3.08944,7.355435 2.39196,8.227197 4.38193,10.042796 9.71332,8.860699 2.21603,-0.491001 11.28777,-1.388399 20.15927,-1.994385 8.87145,-0.605187 18.52185,-1.450056 21.44564,-1.877057 12.73222,-1.859235 19.34418,1.544856 37.79168,19.456458 9.50241,9.227015 9.47022,11.407045 -0.27575,18.279235 -4.07933,2.87674 -11.78285,9.31365 -17.11989,14.30433 -6.36078,5.94933 -13.63036,11.17537 -21.10783,15.17569 -6.2726,3.35618 -11.41091,6.79978 -11.41654,7.65271 -0.006,0.8533 -0.831,1.55094 -1.83141,1.55094 -1.0002,0 -3.43659,1.58242 -5.41548,3.51638 -3.22544,3.15303 -3.43754,3.82662 -2.05097,6.51414 0.85109,1.64869 1.96426,4.95175 2.47443,7.34018 0.50957,2.38875 2.17143,8.25066 3.69222,13.0281 2.60289,8.17502 2.68286,9.49276 1.36275,22.4668 -1.17487,11.53201 -1.95522,14.61604 -4.78441,18.8916 -4.98835,7.53812 -8.3199,9.36009 -14.152,7.74088 -2.60893,-0.72434 -5.99835,-1.31987 -7.53194,-1.32356 -1.5342,-9.9e-4 -5.56282,-1.99953 -8.9536,-4.43568 -6.72918,-4.83486 -20.16136,-11.70104 -22.88962,-11.70104 -2.43243,0 -19.73827,18.72023 -23.45587,25.37514 l -3.11487,5.57141 4.33589,0.81374 c 2.64306,0.49512 7.32475,0.0313 11.99025,-1.23736 7.90417,-2.11641 12.4736,-2.50197 46.11719,-3.88542 10.93601,-0.45008 25.42401,-1.89428 32.25937,-3.21695 17.28005,-3.34165 50.6632,-3.36163 58.16634,-0.0304 5.83291,2.58578 7.54036,4.38267 8.67048,9.1199 0.44108,1.84187 3.09768,5.19221 5.90583,7.44482 2.8082,2.25287 7.05631,5.79862 9.43904,7.87885 l 4.33467,3.78228 -1.07234,7.87447 c -0.77317,5.67699 -1.73167,8.2568 -3.43433,9.24557 -1.29915,0.75452 -4.25953,3.42567 -6.57904,5.93672 -5.45516,5.90419 -13.98275,11.30957 -23.3184,14.78093 -4.09459,1.52219 -10.23651,4.87027 -13.64854,7.44017 -3.41215,2.56958 -12.90366,8.41567 -21.09299,12.99102 -8.18916,4.57673 -17.91077,10.47847 -21.605,13.11771 -3.90507,2.79134 -8.14916,4.79902 -10.14091,4.79902 -1.88309,0 -5.08425,1.39621 -7.11169,3.10256 -2.02702,1.70576 -4.26077,3.10113 -4.96291,3.10113 -0.70185,0 -5.41191,2.23176 -10.46821,4.95899 -5.51764,2.9756 -11.63154,5.24445 -15.2939,5.67422 -3.35725,0.39606 -10.48255,2.70966 -15.83451,5.14296 -10.96655,4.98546 -26.03954,7.16382 -27.13982,3.92166 z m 54.90666,-167.43037 c 1.46214,-2.73214 1.0576,-15.73965 -0.57076,-18.37551 -0.73001,-1.18114 -1.42593,-0.93108 -2.77608,0.99701 -0.99077,1.41487 -2.60748,2.57255 -3.59243,2.57255 -0.98425,0 -1.7919,0.89697 -1.7919,1.99298 0,1.09543 -1.72042,4.16707 -3.8256,6.82399 -3.27883,4.1412 -3.50112,4.83743 -1.55054,4.87536 1.25131,0.0309 3.67153,0.8423 5.37614,1.81747 4.36992,2.49683 7.13759,2.27402 8.73117,-0.70385 z M 237.18708,97.239515 c -1.75167,-0.223997 -8.73849,0.475824 -15.52658,1.551151 -6.78776,1.075217 -14.69189,1.993824 -17.56479,2.041314 -6.31469,0.10594 -10.67488,1.56293 -8.56943,2.86422 0.79908,0.49363 2.36017,4.07965 3.46999,7.96876 1.10978,3.88887 3.13297,9.70745 4.49663,12.92898 l 2.47848,5.85854 17.20008,-16.40495 C 238.6953,99.242301 240.06097,97.604076 237.18708,97.239515 Z"
     id="path4380"
     inkscape:connector-curvature="0" />
</svg>
