<?xml version="1.0" encoding="UTF-8" standalone="no"?>
<!-- Created with Inkscape (http://www.inkscape.org/) -->

<svg
   xmlns:dc="http://purl.org/dc/elements/1.1/"
   xmlns:cc="http://creativecommons.org/ns#"
   xmlns:rdf="http://www.w3.org/1999/02/22-rdf-syntax-ns#"
   xmlns:svg="http://www.w3.org/2000/svg"
   xmlns="http://www.w3.org/2000/svg"
   xmlns:sodipodi="http://sodipodi.sourceforge.net/DTD/sodipodi-0.dtd"
   xmlns:inkscape="http://www.inkscape.org/namespaces/inkscape"
   id="svg4190"
   version="1.1"
   inkscape:version="0.91 r13725"
   width="370"
   height="370"
   viewBox="0 0 370 370"
   sodipodi:docname="小--王羲之书法.svg">
  <metadata
     id="metadata4196">
    <rdf:RDF>
      <cc:Work
         rdf:about="">
        <dc:format>image/svg+xml</dc:format>
        <dc:type
           rdf:resource="http://purl.org/dc/dcmitype/StillImage" />
        <dc:title></dc:title>
      </cc:Work>
    </rdf:RDF>
  </metadata>
  <defs
     id="defs4194" />
  <sodipodi:namedview
     pagecolor="#ffffff"
     bordercolor="#666666"
     borderopacity="1"
     objecttolerance="10"
     gridtolerance="10"
     guidetolerance="10"
     inkscape:pageopacity="0"
     inkscape:pageshadow="2"
     inkscape:window-width="1366"
     inkscape:window-height="696"
     id="namedview4192"
     showgrid="false"
     inkscape:zoom="1.2864865"
     inkscape:cx="185"
     inkscape:cy="185"
     inkscape:window-x="0"
     inkscape:window-y="49"
     inkscape:window-maximized="1"
     inkscape:current-layer="svg4190" />
  <path
     style="fill:#000000"
     d="m 173.59218,277.86021 c -1.75385,-1.9684 -6.45065,-4.70424 -11.72839,-6.83172 -7.65663,-3.0864 -9.32288,-4.26932 -12.79465,-9.08346 -2.19539,-3.04422 -5.25248,-8.12664 -6.79354,-11.29427 l -2.8019,-5.75936 2.34582,-0.58877 c 1.29021,-0.32382 4.03064,-0.10554 6.08989,0.48504 2.05924,0.59058 6.28365,1.07376 9.38758,1.07376 l 5.64351,0 1.05404,-4.66823 c 1.09871,-4.86603 0.7572,-45.53435 -0.57418,-68.37603 -0.42256,-7.24951 -0.40068,-19.60662 0.0486,-27.46026 0.61229,-10.7031 0.42749,-16.20499 -0.73786,-21.96821 -0.85512,-4.22886 -1.79725,-10.45723 -2.09362,-13.84081 -0.31992,-3.65246 -1.74153,-8.45197 -3.49895,-11.813023 -2.84703,-5.44492 -3.15275,-11.142893 -0.59778,-11.142893 2.6522,0 12.06169,5.020443 22.36269,11.931663 l 11.42792,7.667293 0.75139,9.00973 c 0.5733,6.87441 0.38786,9.56454 -0.78243,11.35061 -1.14731,1.75103 -1.24809,3.03136 -0.39992,5.08121 1.42032,3.43261 1.63898,45.66649 0.36677,70.84177 -0.66495,13.15831 -0.53994,23.05225 0.42325,33.5015 1.34725,14.61582 1.32602,14.98094 -1.47911,25.45298 -3.94586,14.7305 -6.06726,18.94888 -9.74283,19.37367 -2.15133,0.24861 -3.74354,-0.54859 -5.87624,-2.94219 z M 47.868221,271.91398 c -2.674914,-2.37363 -12.08251,-21.10978 -12.08251,-24.06355 0,-0.81347 1.157241,-3.20019 2.571642,-5.30384 4.874633,-7.25008 13.002977,-33.38987 14.668925,-47.17351 0.326019,-2.69739 1.256065,-5.91668 2.066768,-7.15397 0.810693,-1.23728 2.022228,-4.8059 2.692281,-7.93024 1.94211,-9.05577 5.833556,-10.64634 6.875727,-2.81034 0.301813,2.26926 1.878667,9.06877 3.504115,15.11002 3.100968,11.5252 4.055233,24.99045 2.315837,32.67771 l -0.932015,4.11903 4.351198,0 c 2.464908,0 6.693719,-1.18899 9.754822,-2.74272 2.97198,-1.50849 7.875015,-3.53469 10.895647,-4.50268 3.020624,-0.968 10.434892,-3.86227 16.476142,-6.43174 10.32941,-4.39328 16.83518,-6.55706 23.89043,-7.94582 5.75913,-1.13362 3.4111,3.14845 -7.45032,13.58699 -9.68231,9.30536 -21.44079,17.31525 -30.339988,20.66769 -1.60368,0.60412 -5.613336,3.91402 -8.910359,7.35531 -3.373275,3.52089 -7.381687,6.58379 -9.166731,7.00444 -1.744683,0.41115 -4.655006,2.10351 -6.467384,3.76077 -1.812377,1.65729 -6.013794,4.7256 -9.336484,6.81846 -3.322692,2.09288 -6.719635,4.62848 -7.548759,5.63467 -2.032596,2.46667 -4.529865,2.25083 -7.828984,-0.67668 z M 243.14015,249.64387 c -0.8935,-0.89349 8.59136,-9.25396 16.17203,-14.25487 3.02061,-1.99269 10.31762,-8.49887 16.21554,-14.45817 8.19716,-8.2825 11.23773,-12.18848 12.90632,-16.57983 1.20054,-3.15962 2.18281,-6.20055 2.18281,-6.75765 0,-1.71566 -18.61934,-12.36576 -25.14202,-14.38101 -3.38946,-1.04722 -6.30522,-2.61288 -6.47949,-3.47925 -0.44346,-2.20478 10.72044,-7.46513 15.84303,-7.46513 8.11088,0 22.99833,2.4398 27.70436,4.54027 6.60191,2.94668 12.08606,7.57094 18.81599,15.86569 3.1479,3.87988 6.38257,7.05429 7.18817,7.05429 1.53234,0 3.36019,4.11075 2.29948,5.17147 -0.33673,0.33672 0.60669,1.57105 2.09652,2.74295 5.86461,4.61309 2.25882,12.17923 -7.17691,15.05955 -2.71855,0.82986 -9.26453,3.16733 -14.54659,5.19438 -5.28208,2.02705 -10.50756,3.68555 -11.61224,3.68555 -2.9052,0 -12.37502,3.31717 -15.58076,5.45776 -3.7302,2.49079 -21.01795,8.73349 -29.10785,10.51099 -3.62476,0.79643 -7.5916,1.75932 -8.81522,2.13974 -1.2236,0.38043 -2.55703,0.3594 -2.96317,-0.0467 z"
     id="path4268"
     inkscape:connector-curvature="0" />
</svg>
