<?xml version="1.0" encoding="UTF-8" standalone="no"?>
<!-- Created with Inkscape (http://www.inkscape.org/) -->

<svg
   xmlns:dc="http://purl.org/dc/elements/1.1/"
   xmlns:cc="http://creativecommons.org/ns#"
   xmlns:rdf="http://www.w3.org/1999/02/22-rdf-syntax-ns#"
   xmlns:svg="http://www.w3.org/2000/svg"
   xmlns="http://www.w3.org/2000/svg"
   xmlns:sodipodi="http://sodipodi.sourceforge.net/DTD/sodipodi-0.dtd"
   xmlns:inkscape="http://www.inkscape.org/namespaces/inkscape"
   id="svg4190"
   version="1.1"
   inkscape:version="0.91 r13725"
   width="370"
   height="370"
   viewBox="0 0 370 370"
   sodipodi:docname="匠--王羲之书法.svg">
  <metadata
     id="metadata4196">
    <rdf:RDF>
      <cc:Work
         rdf:about="">
        <dc:format>image/svg+xml</dc:format>
        <dc:type
           rdf:resource="http://purl.org/dc/dcmitype/StillImage" />
        <dc:title />
      </cc:Work>
    </rdf:RDF>
  </metadata>
  <defs
     id="defs4194" />
  <sodipodi:namedview
     pagecolor="#ffffff"
     bordercolor="#666666"
     borderopacity="1"
     objecttolerance="10"
     gridtolerance="10"
     guidetolerance="10"
     inkscape:pageopacity="0"
     inkscape:pageshadow="2"
     inkscape:window-width="1366"
     inkscape:window-height="696"
     id="namedview4192"
     showgrid="false"
     inkscape:zoom="1.2864865"
     inkscape:cx="49.747901"
     inkscape:cy="185"
     inkscape:window-x="0"
     inkscape:window-y="49"
     inkscape:window-maximized="1"
     inkscape:current-layer="svg4190" />
  <path
     style="fill:#000000"
     d="m 80.095618,349.43405 c -1.1983,-1.3241 -3.122056,-2.40746 -4.27503,-2.40746 -2.450506,0 -4.684168,-2.52718 -7.974328,-9.02226 -1.332576,-2.63062 -3.577692,-4.98368 -5.125776,-5.37223 -2.106969,-0.52882 -3.206809,-2.34464 -4.677925,-7.72314 -4.052352,-14.81574 -4.631558,-22.23755 -4.420863,-56.64784 0.116969,-19.10218 0.21604,-35.84759 0.220158,-37.21203 0.0037,-1.36444 -0.385802,-4.71353 -0.86647,-7.44241 -0.480679,-2.72888 -1.428644,-8.58978 -2.106574,-13.02422 -0.67794,-4.43443 -2.039292,-9.29887 -3.025238,-10.80987 -0.985933,-1.51098 -1.792615,-3.58785 -1.792615,-4.61524 0,-1.02738 -1.80172,-4.4241 -4.003829,-7.54826 -3.356786,-4.7623 -3.707597,-5.86762 -2.170703,-6.83948 5.214461,-3.29738 10.013809,0.22891 19.255442,14.14782 5.907421,8.89723 8.597616,26.12859 7.383821,47.29527 -0.469465,8.18664 -0.964852,23.37522 -1.100874,33.75241 -0.136023,10.37716 -0.550882,19.17113 -0.921895,19.54217 -0.736426,0.73641 2.638043,17.31314 4.9511,24.32174 2.295149,6.95438 16.794065,19.88891 20.043331,17.88074 0.666319,-0.41179 5.683957,-0.91429 11.15029,-1.11664 6.57465,-0.24338 10.66938,-0.99519 12.09718,-2.22109 3.46293,-2.97321 6.70724,-4.00661 13.32201,-4.24341 3.4111,-0.12206 8.0161,-0.61971 10.23331,-1.1058 2.66369,-0.58399 4.03131,-0.41525 4.03131,0.49737 0,2.43706 14.65439,0.40442 19.4908,-2.70347 0.82777,-0.5319 8.3632,-1.29201 16.74542,-1.68912 27.79887,-1.31694 30.06869,-1.48686 38.18784,-2.85873 4.43443,-0.74927 9.45806,-1.39548 11.16361,-1.43603 1.70555,-0.0405 3.73355,-0.59684 4.50666,-1.23624 0.92159,-0.76221 1.64569,-0.53699 2.10273,0.65408 0.55924,1.45733 2.72147,1.70637 10.93315,1.25914 6.21563,-0.3385 10.60676,-1.15731 11.17991,-2.08469 0.74642,-1.20773 1.26608,-1.20503 2.48402,0.0128 2.56495,2.56495 13.48932,1.93372 16.5666,-0.95723 2.49998,-2.34861 3.2436,-2.4099 12.48396,-1.02918 7.64012,1.14161 11.06721,2.35667 15.40745,5.46263 3.06999,2.19695 7.56149,4.81691 9.98112,5.82213 6.2986,2.6167 11.48159,9.12879 10.51779,13.21488 -1.37387,5.82452 -5.24557,7.88802 -12.98558,6.92097 -3.75516,-0.46918 -7.94333,-1.63457 -9.30704,-2.58975 -1.42288,-0.99661 -5.49901,-1.7367 -9.56515,-1.7367 -3.89711,0 -8.657,-0.6157 -10.57752,-1.36824 -1.92052,-0.75256 -11.30637,-1.59331 -20.85746,-1.86837 -9.55109,-0.27506 -18.90062,-1.12254 -20.77672,-1.88325 -2.58139,-1.04668 -4.3326,-1.00141 -7.19957,0.18612 -2.7224,1.12766 -7.43655,1.33337 -16.7529,0.73105 -8.74561,-0.56542 -13.81132,-0.38495 -15.56681,0.55456 -1.46504,0.78408 -8.37349,1.38419 -15.80763,1.37317 -7.26289,-0.0111 -15.15889,0.4595 -17.54667,1.04501 -6.93185,1.69979 -32.00261,2.63442 -32.87337,1.22551 -1.09827,-1.77703 -4.74567,-1.52271 -8.84836,0.617 -1.9541,1.01912 -6.66301,1.8564 -10.46425,1.8606 -3.80123,0.004 -9.38303,0.79787 -12.40401,1.76368 -3.020968,0.96582 -8.366474,2.04917 -11.878911,2.40746 -5.269427,0.53749 -6.767245,0.2304 -8.564941,-1.75604 z m 73.736922,-57.06479 c -5.02028,-8.45039 -5.20022,-9.11834 -5.05198,-18.75294 0.0846,-5.49475 -0.36259,-10.95517 -0.99363,-12.1343 -0.67868,-1.26811 -0.69203,-2.60151 -0.0326,-3.26418 0.61307,-0.61618 1.28467,-3.77125 1.49245,-7.01125 0.20777,-3.23999 0.71933,-5.89134 1.13678,-5.8919 0.41745,-5.4e-4 1.12695,-3.59236 1.57666,-7.98181 0.44971,-4.38944 1.62038,-10.25599 2.60151,-13.03679 2.58268,-7.32012 3.66604,-22.10119 2.04908,-27.95734 -1.06706,-3.86457 -1.00901,-5.28934 0.26742,-6.56579 1.34668,-1.34667 2.31387,-0.14701 5.56098,6.89768 4.10161,8.89855 4.67669,14.06664 2.81983,25.34088 -0.56217,3.41336 -0.47588,6.33441 0.20734,7.01762 0.6437,0.64371 1.38089,8.33879 1.6382,17.10017 0.56878,19.36769 1.37853,30.80321 2.41173,34.05849 1.39914,4.40831 -0.80217,12.33043 -4.64122,16.70288 -2.04805,2.33258 -4.19915,4.24107 -4.78023,4.24107 -0.58109,0 -3.39908,-3.94312 -6.26222,-8.76249 z m 67.2849,6.45162 c -1.27098,-1.27098 -4.28708,-2.68162 -6.70244,-3.13475 -2.41536,-0.45312 -4.72455,-1.6916 -5.13153,-2.75218 -1.02864,-2.68058 -0.95245,-2.96203 0.81054,-2.9934 0.85278,-0.0152 2.94595,-1.11911 4.6515,-2.45321 1.70555,-1.3341 3.98824,-2.43804 5.0726,-2.45322 2.97,-0.0415 4.96733,-5.71648 4.98752,-14.17088 0.0288,-12.02761 0.96329,-29.62747 1.74242,-32.81319 0.39306,-1.60724 -0.0449,-4.11905 -0.97326,-5.58181 -1.18547,-1.86786 -1.66387,-6.89975 -1.60711,-16.90367 0.0686,-12.08242 0.38481,-14.30317 2.08369,-14.63333 1.40948,-0.27391 2.81369,1.60857 4.7398,6.3542 2.16825,5.34221 3.42741,6.88189 6.05978,7.40968 2.43745,0.48874 4.41408,2.56797 7.41858,7.80369 l 4.09579,7.13743 -0.007,23.03364 c -0.009,27.6945 -1.16969,32.81628 -9.55194,42.13935 -4.99374,5.55447 -6.27307,6.32252 -10.53095,6.32252 -3.074,0 -5.69186,-0.84519 -7.15754,-2.31087 z M 195.64097,185.99543 c -1.43436,-2.78575 -1.44052,-3.57228 -0.0382,-4.87249 0.91979,-0.85278 2.76101,-1.55051 4.09161,-1.55051 3.55258,0 37.58886,-12.21009 39.92197,-14.3215 1.09617,-0.99204 4.36124,-1.80371 7.25569,-1.80371 3.02403,0 6.05409,-0.79146 7.12324,-1.8606 1.05605,-1.05605 4.10183,-1.86469 7.0437,-1.87008 2.85067,-0.005 8.81125,-1.1173 13.24568,-2.47132 10.82263,-3.30461 13.41433,-3.20919 14.3524,0.52836 0.58241,2.32046 1.50677,2.95922 4.03881,2.7909 2.85584,-0.18983 3.51096,0.49396 5.0292,5.24929 2.46842,7.73142 1.20536,8.33489 -19.71133,9.41789 -12.34328,0.6391 -17.6864,1.38672 -18.70803,2.61769 -0.93019,1.12081 -4.03616,1.72308 -8.88608,1.72308 -6.11444,0 -9.03652,0.80545 -16.23964,4.47637 -8.3193,4.23974 -9.52423,4.49729 -22.79612,4.87248 l -14.01254,0.39613 -1.71047,-3.32198 z M 181.67312,140.4213 c -0.78653,-2.04965 3.89313,-12.03034 8.86178,-18.90021 1.62852,-2.25165 4.69035,-9.2289 6.80408,-15.50502 6.01662,-17.864592 12.8189,-26.842247 18.9512,-25.011825 5.27999,1.576033 8.37855,4.301193 8.37855,7.368923 0,1.65773 0.64994,4.44053 1.44433,6.18401 1.07992,2.37018 1.09051,3.87144 0.0419,5.950272 -0.7713,1.52917 -2.74214,5.89068 -4.3796,9.69223 -2.80714,6.51702 -8.10932,12.31431 -11.26264,12.31431 -0.77956,0 -4.37406,3.35897 -7.98779,7.46438 -8.95039,10.16816 -19.02176,15.21206 -20.85185,10.44293 z M 121.42067,89.942688 c -2.54989,-0.74227 -4.92131,-2.22963 -5.26984,-3.30526 -0.34851,-1.07563 -2.58815,-3.28355 -4.97694,-4.90648 -2.3888,-1.622942 -4.34327,-3.463388 -4.34327,-4.089889 0,-0.626502 -2.44589,-3.620086 -5.43531,-6.652395 -2.989408,-3.032323 -5.688751,-6.839102 -5.998516,-8.459524 -0.490228,-2.564483 0.358637,-3.369356 6.551486,-6.211929 3.91307,-1.79614 8.81216,-3.265708 10.88689,-3.265708 2.07473,0 4.11722,-0.558182 4.53885,-1.240402 0.42164,-0.68222 3.21255,-1.240401 6.20201,-1.240401 2.98946,0 5.80056,-0.59086 6.24689,-1.313022 0.4655,-0.753201 2.34772,-0.975609 4.4146,-0.521644 2.72048,0.597519 3.60312,0.338164 3.60312,-1.058752 0,-1.191436 1.76416,-2.14818 4.95511,-2.687289 2.72531,-0.460438 5.30347,-1.400839 5.72926,-2.089779 0.44957,-0.727421 4.74294,-1.080145 10.23981,-0.841262 7.44436,0.323517 10.15233,-0.05127 12.68134,-1.755074 1.76864,-1.191538 5.11772,-2.171772 7.44241,-2.178299 21.69222,-0.0609 42.24276,-2.413039 43.09191,-4.932149 0.22701,-0.673464 1.64255,-0.915825 3.14561,-0.538576 2.00703,0.503729 3.64514,-0.337943 6.16754,-3.168914 3.18861,-3.578673 3.83946,-3.794117 9.08544,-3.007436 3.64471,0.546559 5.95002,0.363166 6.49374,-0.516596 0.47529,-0.76902 6.82557,-1.727337 14.55838,-2.196995 10.76976,-0.654109 15.15464,-0.41138 20.41679,1.130191 3.68578,1.079763 8.22616,2.282933 10.08976,2.673713 1.86359,0.390779 5.35861,2.440416 7.76669,4.554747 2.9144,2.558866 5.21403,3.625705 6.87764,3.190659 1.56227,-0.408544 3.83131,0.467237 6.05217,2.335966 2.75455,2.317797 4.41919,2.816279 7.40834,2.218446 3.54719,-0.709435 4.00926,-0.403058 5.77855,3.831453 1.54267,3.692125 1.64659,5.440275 0.52539,8.837585 -1.65702,5.020789 -3.68046,5.302063 -10.52668,1.463282 -4.66986,-2.618465 -6.2123,-2.758938 -27.89065,-2.54004 -17.06142,0.172278 -24.33962,0.724151 -28.37508,2.151551 -3.0211,1.068604 -9.48336,1.919839 -14.57472,1.919839 -7.49319,0 -9.59561,0.448551 -11.62787,2.480802 -1.95649,1.956503 -4.13465,2.480802 -10.30632,2.480802 -4.96046,0 -8.70707,0.66676 -10.23331,1.821154 -1.32428,1.001633 -3.79438,1.838903 -5.48912,1.860601 -1.69473,0.0217 -6.16019,1.525343 -9.92321,3.341426 -3.76304,1.816085 -7.8111,3.769716 -8.99573,4.341404 -1.18464,0.571689 -3.49719,1.039432 -5.13901,1.039432 -1.64181,0 -3.30641,0.837271 -3.6991,1.860602 -0.3927,1.02333 -1.82082,1.860601 -3.17363,1.860601 -1.35281,0 -6.90302,1.953632 -12.3338,4.341404 -5.43077,2.387775 -11.25898,4.341405 -12.95158,4.341405 -1.69259,0 -3.37472,0.77468 -3.73805,1.72152 -1.11494,2.90551 -19.05978,4.92437 -25.94799,2.91923 z"
     id="path4268"
     inkscape:connector-curvature="0" />
</svg>
