<?xml version="1.0" encoding="UTF-8" standalone="no"?>
<!-- Created with Inkscape (http://www.inkscape.org/) -->

<svg
   xmlns:dc="http://purl.org/dc/elements/1.1/"
   xmlns:cc="http://creativecommons.org/ns#"
   xmlns:rdf="http://www.w3.org/1999/02/22-rdf-syntax-ns#"
   xmlns:svg="http://www.w3.org/2000/svg"
   xmlns="http://www.w3.org/2000/svg"
   xmlns:sodipodi="http://sodipodi.sourceforge.net/DTD/sodipodi-0.dtd"
   xmlns:inkscape="http://www.inkscape.org/namespaces/inkscape"
   id="svg4190"
   version="1.1"
   inkscape:version="0.91 r13725"
   width="370"
   height="370"
   viewBox="0 0 370 370"
   sodipodi:docname="书--王羲之书法.svg">
  <metadata
     id="metadata4196">
    <rdf:RDF>
      <cc:Work
         rdf:about="">
        <dc:format>image/svg+xml</dc:format>
        <dc:type
           rdf:resource="http://purl.org/dc/dcmitype/StillImage" />
        <dc:title></dc:title>
      </cc:Work>
    </rdf:RDF>
  </metadata>
  <defs
     id="defs4194" />
  <sodipodi:namedview
     pagecolor="#ffffff"
     bordercolor="#666666"
     borderopacity="1"
     objecttolerance="10"
     gridtolerance="10"
     guidetolerance="10"
     inkscape:pageopacity="0"
     inkscape:pageshadow="2"
     inkscape:window-width="1366"
     inkscape:window-height="696"
     id="namedview4192"
     showgrid="false"
     inkscape:zoom="1.2864865"
     inkscape:cx="185"
     inkscape:cy="185"
     inkscape:window-x="0"
     inkscape:window-y="49"
     inkscape:window-maximized="1"
     inkscape:current-layer="svg4190" />
  <path
     style="fill:#000000"
     d="m 194.6257,363.60252 c -5.78011,-5.175 -7.10098,-7.16265 -7.07923,-10.65265 0.0204,-3.26237 -0.96069,-4.99365 -4.09375,-7.2246 -3.38539,-2.41062 -3.97741,-3.5854 -3.31853,-6.58531 1.00721,-4.58575 -3.57093,-10.89063 -7.908,-10.89063 -3.92877,0 -6.45996,2.15719 -10.28432,8.76475 -7.4634,12.89487 -11.96332,14.42359 -18.85374,6.40502 -6.81627,-7.93231 -13.49713,-19.46052 -13.49713,-23.29013 0,-5.84811 5.58296,-20.61313 9.50695,-25.14261 3.63615,-4.1972 9.37098,-17.38308 9.37098,-21.5463 0,-2.52366 -3.6518,-2.16867 -18.87793,1.83506 -5.56225,1.46261 -14.566,3.46876 -20.00833,4.45811 -8.9666,1.63 -10.577692,1.56679 -17.168462,-0.67347 -4.115662,-1.39896 -7.591352,-3.47434 -8.005889,-4.78041 -0.402911,-1.26947 -1.930658,-3.39239 -3.394989,-4.71759 -4.179346,-3.78227 -3.182146,-6.41754 3.942692,-10.41914 7.525888,-4.22684 8.227545,-4.39064 8.227545,-1.92057 0,0.98316 1.404377,3.10693 3.120858,4.71948 6.582215,6.18367 20.390755,3.28677 36.369685,-7.63001 3.55108,-2.42608 8.14306,-4.15205 12.24559,-4.60271 4.64265,-0.50997 8.78688,-2.25314 14.15845,-5.95538 4.17697,-2.8789 10.37354,-6.29348 13.77016,-7.58799 3.39662,-1.29449 7.84577,-4.09684 9.887,-6.22741 3.61034,-3.76839 3.65233,-3.9879 1.54313,-8.06661 -2.84393,-5.49957 -5.33626,-5.44116 -28.68786,0.67226 -24.32349,6.36788 -25.34077,6.52238 -30.06366,4.56611 -5.0769,-2.10294 -5.07458,-3.56652 0.0108,-6.45995 2.2202,-1.26337 4.04058,-2.75212 4.04527,-3.30834 0.004,-0.55623 1.14497,-1.01133 2.53396,-1.01133 2.92788,0 13.12831,-4.46336 16.94732,-7.41557 1.4396,-1.11287 3.75724,-2.02339 5.15033,-2.02339 3.55491,0 21.25354,-7.63497 25.05784,-10.80966 2.80251,-2.33871 6.95286,-12.42085 6.95286,-16.89013 0,-0.90812 -1.39949,-1.91867 -3.10997,-2.24565 -3.96084,-0.75715 -27.99939,2.17557 -36.07394,4.40105 -3.58055,0.98688 -7.80343,1.27274 -10.11318,0.68463 l -3.96565,-1.00977 4.45111,-3.73899 c 5.33369,-4.48039 17.13013,-7.75764 32.23762,-8.95615 11.50294,-0.91256 16.44253,-3.51388 14.80005,-7.79413 -0.41393,-1.07868 0.11933,-2.29582 1.18488,-2.70475 2.88592,-1.10742 2.68254,-19.3907 -0.26245,-23.59526 -1.9413,-2.77161 -2.85286,-3.02097 -7.75343,-2.12102 -3.05441,0.56092 -8.15546,0.90324 -11.33565,0.76072 -4.07239,-0.18249 -6.81757,0.55534 -9.28371,2.4952 -1.92584,1.51487 -4.66343,2.75431 -6.08351,2.75431 -1.42007,0 -4.50214,0.99297 -6.84903,2.20659 -3.56229,1.84214 -22.97999,6.56115 -39.42277,9.58077 -2.2249,0.4086 -5.258847,1.49736 -6.742115,2.4195 -1.483259,0.92213 -7.24777,2.07272 -12.81002,2.55683 -5.56225,0.48414 -15.042198,1.83244 -21.066557,2.99622 l -10.953381,2.11596 -9.27297,-4.39524 c -5.100128,-2.41737 -9.824114,-5.33345 -10.497746,-6.48014 -0.673632,-1.14672 -3.608342,-4.6708 -6.521584,-7.83128 -5.128283,-5.56298 -5.678562,-8.5629 -1.571209,-8.5629 1.091953,0 2.31616,0.86202 2.720457,1.91559 0.584043,1.52202 3.596435,1.83179 14.661436,1.50768 7.659491,-0.22437 14.61357,-0.83265 15.453505,-1.35177 0.839945,-0.5191 6.032833,-0.52163 11.539764,-0.005 7.553398,0.70783 11.598205,0.41402 16.468347,-1.19616 3.550673,-1.17394 8.731218,-2.48416 11.512343,-2.91161 2.78112,-0.42746 5.05659,-1.2458 5.05659,-1.81855 0,-0.57273 6.44892,-1.16808 14.33092,-1.32299 8.44693,-0.16599 23.96364,-1.9279 37.79209,-4.29123 12.90363,-2.20547 24.97685,-4.00979 26.82935,-4.00979 4.41701,0 6.50847,-5.33634 5.28485,-13.48424 -0.50117,-3.33735 -0.85161,-10.129485 -0.77873,-15.093653 0.073,-4.964166 -0.47924,-9.403851 -1.22697,-9.865969 -0.84071,-0.519588 -0.89657,-1.667393 -0.14641,-3.007861 2.77522,-4.959057 -5.01509,-14.104105 -21.2548,-24.951037 -3.81731,-2.549688 -3.51199,-2.684587 6.58034,-2.90735 5.8192,-0.128452 6.13134,-0.346467 7.93896,-5.545257 1.70513,-4.903971 1.63455,-5.950483 -0.75246,-11.15732 l -2.63406,-5.745765 3.33505,-7.218195 c 2.13195,-4.614225 4.83943,-8.077665 7.50513,-9.60064 2.29353,-1.3103446 5.5284,-3.6077651 7.18861,-5.1053768 2.50069,-2.2557783 5.39244,-2.8236838 16.85529,-3.3101828 12.84655,-0.5452258 14.17449,-0.3585583 18.55622,2.6084724 2.59571,1.7576475 6.20598,5.9972062 8.02281,9.4212412 l 3.30335,6.225522 -4.40468,9.556028 c -3.99724,8.67215 -4.23905,9.902183 -2.61429,13.298477 1.62071,3.38784 2.81107,3.890427 12.56293,5.304206 29.86763,4.330079 45.15736,10.673363 45.15736,18.73454 0,1.633993 0.91019,3.726288 2.02264,4.649539 1.11245,0.923252 2.02264,2.43284 2.02264,3.354635 0,2.86865 -11.13506,15.523295 -13.65923,15.523295 -7.45513,0 -12.83788,7.400418 -7.71142,10.601941 3.08455,1.92633 17.65188,2.01641 19.5474,0.12095 0.98502,-0.98503 2.4711,-0.93089 4.90652,0.17877 2.90262,1.32252 5.08531,1.06992 12.9042,-1.49342 10.52995,-3.452107 12.15662,-3.164542 23.77361,4.20272 6.27934,3.98224 8.08084,8.75645 4.39978,11.66001 -0.92704,0.73124 -9.36085,1.7 -18.74181,2.15281 -14.10137,0.68066 -17.34208,0.47894 -18.70593,-1.16441 -2.17149,-2.61649 -11.13974,-2.52659 -18.84894,0.18893 -4.17426,1.47037 -8.44198,1.89627 -13.67526,1.36475 -6.64172,-0.67458 -8.18219,-0.35297 -12.13582,2.53361 -2.49064,1.81842 -5.89373,4.02342 -7.5624,4.89998 -1.66867,0.87654 -3.03395,2.73425 -3.03395,4.12824 0,1.39398 -2.5135,4.8554 -5.58556,7.69203 -4.69415,4.33442 -5.44325,5.7246 -4.69379,8.71066 1.07009,4.26361 2.06499,4.35899 8.93093,0.85626 6.23895,-3.18287 10.57955,-3.45901 11.62315,-0.73943 0.41313,1.07658 2.85696,2.6524 5.43074,3.50183 3.58442,1.18297 4.61411,2.22384 4.39975,4.4476 -0.15392,1.59675 0.19673,4.01211 0.77925,5.36747 0.6728,1.56551 0.37708,3.08693 -0.81085,4.17138 -2.21884,2.02561 -19.57992,5.2902 -21.57525,4.05702 -0.76268,-0.47136 -4.07417,-0.45401 -7.35886,0.0386 -4.59933,0.68971 -5.97217,1.4714 -5.97217,3.40052 0,1.37773 -1.06188,4.36288 -2.35974,6.63368 -4.30865,7.53863 2.86209,12.55666 9.96237,6.97158 6.15696,-4.84307 22.02628,-2.7732 22.05217,2.87632 0.0108,2.27886 -5.53236,5.47439 -12.1253,6.99045 -3.64244,0.83758 -13.48423,9.51315 -13.48423,11.88639 0,2.20312 13.39478,0.22619 16.30359,-2.40625 2.33694,-2.11489 16.56633,-5.80881 24.52978,-6.36786 2.49939,-0.17547 4.31007,-1.38865 5.42444,-3.63445 2.76116,-5.5646 9.37265,-5.31829 15.25943,0.56849 2.63532,2.63532 4.54189,5.55757 4.23683,6.49388 -0.89562,2.7488 -7.47431,5.29798 -16.59005,6.4285 -8.44287,1.04705 -20.73131,4.36513 -25.2112,6.80743 -1.2878,0.70206 -4.17006,1.27648 -6.40502,1.27648 -2.23495,0 -4.06357,0.6198 -4.06357,1.37733 0,1.60454 -3.83109,3.36113 -11.59228,5.31514 -4.56332,1.14889 -5.89476,2.27116 -7.65336,6.45105 -1.17094,2.78311 -2.55042,8.09415 -3.06552,11.80231 -2.30135,16.56745 -2.74353,21.01645 -2.14798,21.612 0.35034,0.35034 3.15289,0.63699 6.2279,0.63699 4.45189,0 6.38042,-0.82412 9.46649,-4.04527 3.60903,-3.76701 4.54866,-4.04528 13.66006,-4.04528 8.40897,0 10.06306,-0.39777 11.76644,-2.8297 4.09976,-5.85323 13.72116,0.0838 20.34103,12.55187 l 2.61798,4.93077 -4.30351,8.82624 c -2.36692,4.85439 -4.3035,9.3049 -4.3035,9.88998 0,0.58507 -1.42266,3.1767 -3.16147,5.75917 -1.7388,2.58246 -3.53609,6.22602 -3.99397,8.09681 -0.75705,3.0931 -9.57297,21.96814 -15.73094,33.68023 -1.36476,2.59571 -4.35854,6.50167 -6.65281,8.67992 -2.29427,2.17825 -4.1714,5.01394 -4.1714,6.30156 0,1.28761 -1.42682,4.05634 -3.17073,6.15272 -1.7439,2.09639 -3.88901,5.17691 -4.76693,6.84558 -2.18664,4.15624 -4.34641,3.82348 -10.94027,-1.68553 -3.10687,-2.59571 -6.34993,-4.70018 -7.2068,-4.6766 -2.48353,0.0683 -6.27744,3.4449 -6.27744,5.58683 0,1.72046 -7.89016,6.57901 -10.49603,6.46318 -0.53107,-0.0236 -4.16325,-2.90585 -8.07152,-6.40501 z m 26.7611,-62.68911 c 2.83054,-1.9075 5.06922,-4.85988 5.9302,-7.82076 0.76072,-2.61608 3.7625,-7.64604 6.67063,-11.17773 4.5384,-5.51154 5.11151,-6.91496 4.04527,-9.90617 -2.52097,-7.07226 -5.14484,-6.95068 -13.13793,0.60886 -4.04083,3.82166 -7.10948,7.18595 -6.81923,7.47621 0.29025,0.29026 -0.68956,1.62938 -2.17737,2.97584 -2.05514,1.85988 -2.70512,4.15335 -2.70512,9.54515 0,7.38602 0.92457,11.36289 2.64172,11.36289 0.5526,0 3.05093,-1.37892 5.55183,-3.06429 z m -61.97523,-2.12378 c 1.76868,-1.37017 4.98093,-2.9229 7.13828,-3.45054 2.15738,-0.52762 6.0105,-3.04731 8.5625,-5.59931 2.55201,-2.55202 4.98665,-4.64001 5.4103,-4.64001 0.42366,0 1.87996,-1.00422 3.23621,-2.23162 2.01368,-1.82235 2.46592,-4.29538 2.46592,-13.48424 0,-11.10726 -0.0436,-11.25261 -3.37492,-11.25261 -4.00766,0 -22.0518,18.17244 -24.2499,24.42234 -0.75146,2.13661 -3.23217,5.25221 -5.5127,6.9236 -3.73671,2.7386 -4.03267,3.47188 -2.9954,7.42124 1.33405,5.07927 4.40099,5.70161 9.31971,1.89115 z m 79.1133,-197.57078 c 8.60935,-9.103121 11.31209,-15.384171 10.79694,-25.091621 -0.37017,-6.975178 -0.62715,-7.476171 -4.03682,-7.869655 -6.86118,-0.791807 -9.16854,1.698434 -9.16854,9.895217 0,5.897112 -0.53528,7.691758 -2.69684,9.041665 -1.78071,1.112072 -2.69685,3.144564 -2.69685,5.983022 0,2.364339 -0.80725,5.106049 -1.79389,6.09269 -1.64849,1.648482 -1.67074,2.664462 -0.16423,7.500602 0.90984,2.92077 2.72199,1.88998 9.76023,-5.55192 z m -28.22127,3.33987 c 2.50303,-1.58599 0.76895,-6.525205 -2.67463,-7.618156 -3.66234,-1.162381 -4.30069,-0.235637 -3.22166,4.677186 0.92317,4.20309 2.59129,5.03513 5.89629,2.94097 z"
     id="path4268"
     inkscape:connector-curvature="0" />
</svg>
